<svg id="レイヤー_1" data-name="レイヤー 1" xmlns="http://www.w3.org/2000/svg" width="32" height="32" viewBox="0 0 32 32"><defs><style>.cls-1{fill:#f4f6f6;}.cls-2{fill:#37807a;}</style></defs><rect class="cls-1" width="32" height="32"/><path class="cls-2" d="M10.23,5.8A.5.5,0,0,0,10,5.67c-.08,0-.16,0-.29.21l-.39.44H6.74c0-.06-.06-.11-.16-.16C6.17,5.93,5.52,5.62,5,5.38a20.07,20.07,0,0,1,.16,2.28c0,5.13,0,8.42-.06,10.34,0,1.06,0,1.71,0,2s.1.54.39.54,1-.57,1-.82V17.87H9.53V19c0,.26.11.6.47.6a1,1,0,0,0,1-.86c0-.67,0-2.43-.05-4.17,0-1.89-.08-5.73-.08-7.31.26-.23.52-.46.52-.59a.29.29,0,0,0-.16-.23C11,6.29,10.52,6,10.23,5.8Zm-.7,11.37H6.45V7H9.53Z"/><path class="cls-2" d="M15.73,13.26c.54,0,.82-.65.82-1.32,0-1.5-1.63-2.8-3.21-3.78l-.18.2A6.94,6.94,0,0,1,14.9,12C15,12.33,15.18,13.26,15.73,13.26Z"/><path class="cls-2" d="M27.8,15.41a16.74,16.74,0,0,0-1.27-1.14c-.16-.13-.23-.18-.34-.18a.45.45,0,0,0-.26.15l-.85.83H20.94c0-.49,0-1-.07-1.45A14.63,14.63,0,0,0,24.61,9c.31,0,.93-.18.93-.49,0,0,0-.11-.13-.18a16,16,0,0,0-2.15-1.12,2.74,2.74,0,0,1,0,.49,3.51,3.51,0,0,1-.16,1,13.77,13.77,0,0,1-2.33,4.46,11.68,11.68,0,0,0-1.57-4.7A10.29,10.29,0,0,0,16.94,6l1.3-.18.88-.16a26.57,26.57,0,0,0,4-.88,2.63,2.63,0,0,0,.6.11c.31,0,.57-.11.57-.26s0-.13-.18-.26c-.49-.42-.93-.78-1.68-1.35a2.32,2.32,0,0,1-1,.78,42.52,42.52,0,0,1-8.79,2.33l.06.26c1.06,0,2.38-.17,3.73-.33a14.72,14.72,0,0,1,2.91,8.89v.14c0,.24,0,.47,0,.7V16A19.08,19.08,0,0,1,19,19.66a20.29,20.29,0,0,1-1.12,3.53,15.48,15.48,0,0,1-1,2,13.43,13.43,0,0,1-3.19,3.6l.21.23a10.38,10.38,0,0,0,4.66-4,15.21,15.21,0,0,0,2-5.09A21.32,21.32,0,0,0,21,16c0-.07,0-.13,0-.2h6.76c.1,0,.21-.08.21-.15S27.85,15.46,27.8,15.41Z"/><path class="cls-2" d="M18.23,15.77a2.14,2.14,0,0,0,.22-.7H13.94a11.56,11.56,0,0,1-2.46-.18,2.11,2.11,0,0,0,1.34,1.27,3.34,3.34,0,0,1,1.77-.39Z"/></svg>