<?xml version="1.0" standalone="no"?>
<!DOCTYPE svg PUBLIC "-//W3C//DTD SVG 20010904//EN"
 "http://www.w3.org/TR/2001/REC-SVG-20010904/DTD/svg10.dtd">
<svg version="1.0" xmlns="http://www.w3.org/2000/svg"
 width="260.000000pt" height="260.000000pt" viewBox="0 0 260.000000 260.000000"
 preserveAspectRatio="xMidYMid meet">
<metadata>
Created by potrace 1.14, written by Peter Selinger 2001-2017
</metadata>
<g transform="translate(0.000000,260.000000) scale(0.100000,-0.100000)"
fill="#000000" stroke="none">
<path d="M885 2277 c-49 -16 -92 -32 -95 -34 -2 -2 16 -21 40 -42 l45 -39 -3
-538 c-4 -581 -13 -813 -32 -856 -9 -19 -27 -32 -61 -43 -27 -9 -49 -21 -49
-26 0 -6 77 -8 193 -7 194 3 233 12 145 33 -32 8 -47 18 -57 39 -12 26 -11 38
18 124 35 105 80 212 90 212 3 0 14 -21 23 -47 47 -131 199 -313 307 -368 l53
-27 -68 -50 c-203 -148 -363 -208 -520 -195 -117 10 -185 47 -235 126 -16 25
-34 63 -40 83 -10 39 -23 49 -32 25 -8 -23 13 -131 37 -183 51 -111 138 -165
279 -172 199 -10 349 58 590 271 53 46 97 77 110 77 32 0 138 53 165 83 32 34
27 78 -10 91 -36 13 -88 -4 -156 -49 -30 -19 -63 -35 -75 -35 -30 0 -134 51
-179 88 -96 77 -198 248 -198 332 0 36 6 48 35 76 53 50 153 94 230 101 61 5
65 5 65 -14 0 -11 -12 -46 -26 -78 -22 -49 -26 -67 -21 -117 3 -33 10 -65 16
-71 16 -16 79 20 102 58 35 56 34 82 -3 155 l-35 68 27 -8 c44 -13 62 -25 120
-85 57 -59 114 -95 149 -95 46 0 38 102 -12 156 -36 38 -92 53 -201 55 l-61 0
41 19 c75 33 106 99 84 178 -6 23 -14 42 -17 42 -3 0 -26 -11 -50 -25 -52 -31
-73 -69 -73 -133 0 -26 -5 -53 -12 -60 -7 -7 -39 -12 -73 -12 -36 0 -87 -9
-121 -20 l-59 -20 170 170 c93 93 176 170 183 170 7 0 38 -27 70 -61 61 -65
103 -95 152 -109 25 -7 32 -5 41 12 14 26 6 91 -15 123 -26 39 -60 56 -141 69
-77 11 -77 11 -56 31 12 10 53 29 91 41 98 31 155 67 185 118 28 47 47 131 38
166 -5 20 -10 22 -63 18 -121 -9 -199 -81 -241 -222 -12 -39 -31 -82 -43 -94
l-21 -24 -6 69 c-11 122 -57 173 -156 173 -47 0 -53 -2 -53 -20 0 -42 31 -92
104 -166 42 -42 76 -79 76 -83 0 -3 -79 -85 -175 -181 l-175 -175 21 55 c11
30 23 88 26 128 6 80 21 99 70 89 46 -9 90 11 122 55 52 70 39 88 -63 88 -43
0 -53 -4 -87 -39 -23 -23 -39 -48 -39 -62 0 -19 -2 -21 -10 -9 -5 8 -10 44
-10 80 0 86 -14 130 -50 165 -24 23 -41 30 -89 33 -37 3 -61 0 -65 -7 -15 -24
19 -85 94 -166 45 -49 80 -95 83 -112 3 -15 4 -29 2 -31 -1 -2 -24 11 -51 27
-58 37 -113 41 -163 10 l-33 -20 3 338 c4 295 2 338 -11 339 -8 1 -55 -12
-105 -29z m369 -706 c11 -17 -14 -125 -42 -185 -32 -68 -137 -204 -183 -236
l-29 -21 0 199 0 199 58 -1 c43 0 69 7 107 27 52 27 80 33 89 18z"/>
</g>
</svg>
